<?xml version="1.0" encoding="utf-8"?>
<!-- Generator: Adobe Illustrator 21.0.2, SVG Export Plug-In . SVG Version: 6.00 Build 0)  -->
<svg version="1.1" id="Lager_1" xmlns="http://www.w3.org/2000/svg" xmlns:xlink="http://www.w3.org/1999/xlink" x="0px" y="0px"
	 width="280px" height="246.099px" viewBox="0 0 280 246.099" style="enable-background:new 0 0 280 246.099;" xml:space="preserve"
	>
<style type="text/css">
	.st0{fill:none;stroke:#000000;stroke-width:0.7483;stroke-miterlimit:1;}
	.st1{fill:#D8D9D9;}
	.st2{fill:none;stroke:#000000;stroke-width:0.7483;stroke-miterlimit:3.8637;}
	.st3{fill:url(#SVGID_1_);}
	.st4{font-family:'ArialMT';}
	.st5{font-size:12px;}
	.st6{fill:none;stroke:#000000;stroke-width:0.4677;stroke-linecap:round;stroke-miterlimit:1;}
	.st7{fill:none;stroke:#000000;stroke-width:0.4677;stroke-linecap:round;stroke-dasharray:30,1.7,0.86,1.7;}
	.st8{fill-rule:evenodd;clip-rule:evenodd;fill:none;}
	
		.st9{fill-rule:evenodd;clip-rule:evenodd;fill:#93AD9E;stroke:#000000;stroke-width:0.7483;stroke-linecap:round;stroke-linejoin:round;stroke-miterlimit:2.6131;}
	
		.st10{fill-rule:evenodd;clip-rule:evenodd;fill:#B5CF91;stroke:#000000;stroke-width:0.7483;stroke-linecap:round;stroke-linejoin:round;stroke-miterlimit:2.6131;}
	
		.st11{fill-rule:evenodd;clip-rule:evenodd;fill:url(#SVGID_2_);stroke:#000000;stroke-width:0.7483;stroke-linecap:round;stroke-linejoin:round;stroke-miterlimit:2.6131;}
	
		.st12{fill-rule:evenodd;clip-rule:evenodd;fill:url(#SVGID_3_);stroke:#000000;stroke-width:0.7483;stroke-linecap:round;stroke-linejoin:round;stroke-miterlimit:2.6131;}
	.st13{fill:none;stroke:#000000;stroke-width:0.7483;stroke-miterlimit:2.6131;}
	.st14{fill:none;stroke:#000000;stroke-width:0.4677;stroke-linecap:round;stroke-miterlimit:2.6131;}
	.st15{fill:none;stroke:#000000;stroke-width:0.7483;stroke-linecap:round;stroke-miterlimit:2.6131;}
	.st16{fill:none;stroke:#000000;stroke-width:0.5613;stroke-miterlimit:2.6131;}
</style>
<line class="st0" x1="212.456" y1="87.309" x2="212.456" y2="158.278"/>
<line class="st0" x1="153.822" y1="29.528" x2="153.822" y2="216.372"/>
<polygon class="st1" points="153.838,2.643 243.698,2.643 243.698,87.309 212.456,87.309 212.456,29.476 153.822,29.476 "/>
<polygon class="st1" points="153.822,216.319 212.456,216.319 212.456,158.278 243.698,158.278 243.698,243.151 153.866,243.151 "/>
<polyline class="st2" points="243.698,87.309 212.456,87.309 212.456,29.476 153.822,29.476 153.81,2.643 "/>
<polyline class="st2" points="153.866,243.151 153.822,216.319 212.456,216.319 212.456,158.278 243.698,158.278 "/>
<linearGradient id="SVGID_1_" gradientUnits="userSpaceOnUse" x1="162.729" y1="89.9257" x2="162.729" y2="155.5947" gradientTransform="matrix(-1 0 0 1 370.2471 0)">
	<stop  offset="0" style="stop-color:#D8D9D9"/>
	<stop  offset="0.3" style="stop-color:#FFFFFF"/>
	<stop  offset="0.441" style="stop-color:#EEEEEE"/>
	<stop  offset="0.5966" style="stop-color:#E2E2E2"/>
	<stop  offset="0.7708" style="stop-color:#DBDBDB"/>
	<stop  offset="1" style="stop-color:#D8D9D9"/>
</linearGradient>
<polyline class="st3" points="273.483,155.595 150.338,155.595 141.553,153.14 141.553,92.414 150.338,89.926 273.483,89.926 "/>
<polyline class="st2" points="273.483,155.595 150.338,155.595 141.553,153.14 141.553,92.414 150.338,89.926 273.483,89.926 "/>
<line class="st2" x1="150.338" y1="89.926" x2="150.338" y2="155.595"/>
<text transform="matrix(1 0 0 1 112.4678 126.8935)" class="st4 st5">d</text>
<text transform="matrix(0.75 0 0 0.75 119.1416 129.3735)" class="st4 st5">1</text>
<g>
	<line class="st6" x1="147.338" y1="89.926" x2="115.475" y2="89.926"/>
	<g>
		<line class="st6" x1="118.311" y1="96.197" x2="118.311" y2="115.274"/>
		<polygon points="119.471,98.324 118.311,89.926 117.15,98.324 		"/>
	</g>
</g>
<g>
	<line class="st6" x1="147.338" y1="155.595" x2="115.475" y2="155.595"/>
	<g>
		<line class="st6" x1="118.311" y1="129.62" x2="118.311" y2="149.454"/>
		<polygon points="117.15,147.341 118.311,155.595 119.471,147.341 		"/>
	</g>
</g>
<text transform="matrix(1 0 0 1 95.2637 126.8935)" class="st4 st5">D</text>
<g>
	<line class="st6" x1="151.822" y1="29.295" x2="96.764" y2="29.295"/>
	<g>
		<line class="st6" x1="99.6" y1="35.566" x2="99.6" y2="114.623"/>
		<polygon points="100.76,37.693 99.6,29.295 98.439,37.693 		"/>
	</g>
</g>
<g>
	<line class="st6" x1="151.822" y1="216.382" x2="96.764" y2="216.382"/>
	<g>
		<line class="st6" x1="99.6" y1="131.288" x2="99.6" y2="210.241"/>
		<polygon points="98.439,208.128 99.6,216.382 100.76,208.128 		"/>
	</g>
</g>
<g>
	<line class="st7" x1="3.719" y1="122.839" x2="67.387" y2="122.839"/>
	<text transform="matrix(1 0 0 1 31.6523 10.2978)" class="st4 st5">b</text>
	<g>
		<line class="st6" x1="6.009" y1="28.241" x2="6.009" y2="3.163"/>
		<g>
			<line class="st6" x1="12.28" y1="5.997" x2="28.638" y2="5.997"/>
			<polygon points="14.407,7.157 6.009,5.997 14.407,4.837 			"/>
		</g>
	</g>
	<g>
		<line class="st6" x1="63.511" y1="28.241" x2="63.511" y2="3.163"/>
		<g>
			<line class="st6" x1="40.157" y1="5.997" x2="57.37" y2="5.997"/>
			<polygon points="55.257,4.837 63.511,5.997 55.257,7.157 			"/>
		</g>
	</g>
	<g>
		<path class="st8" d="M40.306,77.419c2.115,0,3.836-1.725,3.836-3.838c0-2.115-1.721-3.836-3.836-3.836
			c-2.115,0-3.838,1.721-3.838,3.836C36.468,75.694,38.19,77.419,40.306,77.419L40.306,77.419z"/>
		<path class="st9" d="M59.007,32.066c-1.475,0.018-1.892,0.743-2.412,1.767H12.843c-1.439,0-2.575,1.641-2.575,3.059v35.709h-4.02
			V34.315c0-3.239,1.565-4.984,4.664-4.984h48.095c2.564,0,4.504,1.609,4.504,3.7v6.435h-2.252v-5.633
			C61.259,33.098,60.394,32.051,59.007,32.066L59.007,32.066z"/>
		<path class="st10" d="M10.268,60.763l0.643,0.26c1.104,0.219,1.477,0.668,2.254,1.445l0,0c0,0,6.271,9.652,6.916,10.777
			c0.644,0.965,1.606,1.932,2.733,2.092c1.288,0,11.422,0,11.422,0l0,0l0.431-0.131c0.708,2.449,2.969,4.242,5.639,4.242
			c3.234,0,5.867-2.633,5.867-5.867c0-0.613-0.096-1.207-0.271-1.762l0.076-0.021c1.438-1.197,2.143-1.988,4.022-1.609
			c1.113,0.225,2.006,0.943,2.252,1.932c1.045,4.225-0.465,7.783-3.055,12.225l0.641,1.283l-8.043,3.703l-7.962-3.381l-7.961-3.375
			c-0.558-0.281-0.855-0.367-1.447-0.482l0,0c0,0-11.457,0.119-12.903-0.205c-1.447-0.162-4.952-3.17-4.952-3.812
			c0-0.643,0-5.475,0-5.475h3.699V60.763L10.268,60.763z"/>
		<linearGradient id="SVGID_2_" gradientUnits="userSpaceOnUse" x1="34.4385" y1="73.58" x2="46.1729" y2="73.58">
			<stop  offset="0" style="stop-color:#BAC5DC"/>
			<stop  offset="0.3516" style="stop-color:#DBE1ED"/>
			<stop  offset="0.5129" style="stop-color:#DBE1ED"/>
			<stop  offset="0.6494" style="stop-color:#CED5E6"/>
			<stop  offset="0.8114" style="stop-color:#C2CBE0"/>
			<stop  offset="0.8381" style="stop-color:#C2CBE0"/>
			<stop  offset="1" style="stop-color:#C2CBE0"/>
		</linearGradient>
		<path class="st11" d="M40.306,79.448c3.234,0,5.867-2.633,5.867-5.867c0-3.236-2.633-5.869-5.867-5.869
			c-3.234,0-5.867,2.633-5.867,5.869C34.438,76.815,37.071,79.448,40.306,79.448L40.306,79.448z M40.306,77.419
			c2.115,0,3.836-1.725,3.836-3.838c0-2.115-1.721-3.836-3.836-3.836c-2.115,0-3.838,1.721-3.838,3.836
			C36.468,75.694,38.19,77.419,40.306,77.419L40.306,77.419z"/>
	</g>
	<g>
		<path class="st8" d="M40.306,168.259c2.115,0,3.836,1.725,3.836,3.838c0,2.115-1.721,3.836-3.836,3.836
			c-2.115,0-3.838-1.721-3.838-3.836C36.468,169.983,38.19,168.259,40.306,168.259L40.306,168.259z"/>
		<path class="st9" d="M59.007,213.612c-1.475-0.02-1.892-0.744-2.412-1.768H12.843c-1.439,0-2.575-1.641-2.575-3.059v-35.709h-4.02
			v38.285c0,3.238,1.565,4.984,4.664,4.984h48.095c2.564,0,4.504-1.609,4.504-3.699v-6.436h-2.252v5.633
			C61.259,212.581,60.394,213.628,59.007,213.612L59.007,213.612z"/>
		<path class="st10" d="M10.268,184.915l0.643-0.26c1.104-0.219,1.477-0.668,2.254-1.445l0,0c0,0,6.271-9.652,6.916-10.777
			c0.644-0.965,1.606-1.932,2.733-2.092c1.288,0,11.422,0,11.422,0l0,0l0.431,0.131c0.708-2.449,2.969-4.242,5.639-4.242
			c3.234,0,5.867,2.633,5.867,5.867c0,0.613-0.096,1.207-0.271,1.762l0.076,0.021c1.438,1.197,2.143,1.988,4.022,1.609
			c1.113-0.225,2.006-0.943,2.252-1.932c1.045-4.225-0.465-7.783-3.055-12.225l0.641-1.283l-8.043-3.703l-7.962,3.381l-7.961,3.375
			c-0.558,0.281-0.855,0.367-1.447,0.482l0,0c0,0-11.457-0.119-12.903,0.205c-1.447,0.162-4.952,3.17-4.952,3.812
			c0,0.643,0,5.475,0,5.475h3.699V184.915L10.268,184.915z"/>
		<linearGradient id="SVGID_3_" gradientUnits="userSpaceOnUse" x1="34.4385" y1="172.0976" x2="46.1729" y2="172.0976">
			<stop  offset="0" style="stop-color:#BAC5DC"/>
			<stop  offset="0.3516" style="stop-color:#DBE1ED"/>
			<stop  offset="0.5129" style="stop-color:#DBE1ED"/>
			<stop  offset="0.6494" style="stop-color:#CED5E6"/>
			<stop  offset="0.8114" style="stop-color:#C2CBE0"/>
			<stop  offset="0.8381" style="stop-color:#C2CBE0"/>
			<stop  offset="1" style="stop-color:#C2CBE0"/>
		</linearGradient>
		<path class="st12" d="M40.306,166.229c-3.234,0-5.867,2.633-5.867,5.867c0,3.236,2.633,5.869,5.867,5.869
			c3.234,0,5.867-2.633,5.867-5.869C46.173,168.862,43.54,166.229,40.306,166.229L40.306,166.229z M40.306,168.259
			c-2.115,0-3.838,1.725-3.838,3.838c0,2.115,1.723,3.836,3.838,3.836c2.115,0,3.836-1.721,3.836-3.836
			C44.142,169.983,42.421,168.259,40.306,168.259L40.306,168.259z"/>
	</g>
	<line class="st13" x1="6.257" y1="72.601" x2="6.257" y2="177.099"/>
	<line class="st14" x1="24.424" y1="84.121" x2="24.424" y2="122.839"/>
	<line class="st13" x1="41.794" y1="89.331" x2="41.794" y2="122.839"/>
	<line class="st15" x1="49.922" y1="85.628" x2="49.922" y2="160.05"/>
	<line class="st13" x1="61.259" y1="39.466" x2="61.259" y2="122.839"/>
	<line class="st16" x1="56.708" y1="33.833" x2="56.708" y2="122.839"/>
	<line class="st13" x1="63.511" y1="39.466" x2="63.511" y2="122.839"/>
	<path class="st13" d="M6.568,122.839"/>
	<path class="st13" d="M6.568,167.602"/>
	<line class="st14" x1="24.424" y1="161.558" x2="24.424" y2="122.839"/>
	<line class="st13" x1="41.794" y1="156.347" x2="41.794" y2="122.839"/>
	<path class="st13" d="M49.837,122.839"/>
	<path class="st13" d="M49.837,160.05"/>
	<line class="st13" x1="61.287" y1="206.212" x2="61.287" y2="122.839"/>
	<line class="st16" x1="56.68" y1="211.845" x2="56.68" y2="122.839"/>
	<line class="st13" x1="63.511" y1="206.212" x2="63.511" y2="122.839"/>
</g>
</svg>
