<?xml version="1.0" encoding="utf-8"?>
<!-- Generator: Adobe Illustrator 15.1.0, SVG Export Plug-In . SVG Version: 6.00 Build 0)  -->
<!DOCTYPE svg PUBLIC "-//W3C//DTD SVG 1.1//EN" "http://www.w3.org/Graphics/SVG/1.1/DTD/svg11.dtd">
<svg version="1.1" id="Lager_1" xmlns="http://www.w3.org/2000/svg" xmlns:xlink="http://www.w3.org/1999/xlink" x="0px" y="0px"
	 width="133.141px" height="217.712px" viewBox="0 0 133.141 217.712" enable-background="new 0 0 133.141 217.712"
	 xml:space="preserve">
<line fill="none" stroke="#000000" stroke-width="0.4678" stroke-linecap="round" stroke-linejoin="round" stroke-miterlimit="1" stroke-dasharray="21.7802,1.871,0.9354,1.871" x1="42.947" y1="122.832" x2="89.409" y2="122.832"/>
<line fill="none" stroke="#000000" stroke-width="0.7482" stroke-linecap="round" stroke-linejoin="round" stroke-miterlimit="1" x1="46.375" y1="205.013" x2="46.375" y2="122.832"/>
<line fill="none" stroke="#000000" stroke-width="0.7482" stroke-linecap="round" stroke-linejoin="round" stroke-miterlimit="1" x1="46.375" y1="40.655" x2="46.375" y2="122.832"/>
<line fill="none" stroke="#000000" stroke-width="0.7482" stroke-linecap="round" stroke-linejoin="round" stroke-miterlimit="1" x1="85.71" y1="204.855" x2="85.71" y2="122.832"/>
<line fill="none" stroke="#000000" stroke-width="0.7482" stroke-linecap="round" stroke-linejoin="round" stroke-miterlimit="1" x1="85.71" y1="40.814" x2="85.71" y2="122.832"/>
<g>
	
		<path fill="#CAD4EB" stroke="#000000" stroke-width="0.7482" stroke-linecap="round" stroke-linejoin="round" stroke-miterlimit="1" d="
		M85.71,41.112v-9.017c0-0.744-0.295-1.457-0.82-1.983c-0.527-0.527-1.238-0.822-1.986-0.822H49.18
		c-0.746,0-1.456,0.295-1.983,0.822c-0.526,0.526-0.821,1.239-0.821,1.983l0,0v8.969c0,0.288,0.129,0.561,0.354,0.741
		c0.226,0.179,0.519,0.248,0.801,0.186c12.229-2.727,24.83-2.719,37.061,0.018c0.271,0.061,0.557-0.005,0.775-0.179
		C85.585,41.654,85.71,41.391,85.71,41.112"/>
</g>
<g>
	
		<path fill="#CAD4EB" stroke="#000000" stroke-width="0.7482" stroke-linecap="round" stroke-linejoin="round" stroke-miterlimit="1" d="
		M84.679,57.259c0.262,0,0.512,0.104,0.695,0.288c0.184,0.186,0.289,0.434,0.289,0.696v10.335v-0.033
		c0,0.754-0.299,1.474-0.832,2.007c-0.535,0.534-1.254,0.832-2.008,0.832h0.033H49.18h0.015c-0.751,0-1.465-0.295-1.995-0.825
		c-0.529-0.53-0.824-1.245-0.824-1.995l0,0V58.131c0-0.232,0.092-0.453,0.254-0.617c0.165-0.163,0.386-0.255,0.616-0.255H84.679z"/>
</g>
<g>
	
		<path fill="#CAD4EB" stroke="#000000" stroke-width="0.7482" stroke-linecap="round" stroke-linejoin="round" stroke-miterlimit="1" d="
		M85.71,204.523v9.012c0,0.746-0.295,1.459-0.82,1.986c-0.527,0.525-1.238,0.822-1.986,0.822H49.18
		c-0.746,0-1.456-0.297-1.983-0.822c-0.526-0.527-0.821-1.24-0.821-1.986l0,0v-8.965c0-0.289,0.129-0.561,0.354-0.742
		c0.226-0.18,0.519-0.25,0.801-0.186c12.229,2.725,24.83,2.721,37.061-0.018c0.271-0.062,0.557,0.004,0.775,0.18
		S85.71,204.242,85.71,204.523"/>
</g>
<g>
	
		<path fill="#CAD4EB" stroke="#000000" stroke-width="0.7482" stroke-linecap="round" stroke-linejoin="round" stroke-miterlimit="1" d="
		M84.679,188.373c0.262,0,0.512-0.104,0.695-0.287s0.289-0.434,0.289-0.695v-10.336v0.033c0-0.754-0.299-1.475-0.832-2.008
		c-0.535-0.533-1.254-0.83-2.008-0.83h0.033H49.18h0.015c-0.751,0-1.465,0.295-1.995,0.824c-0.529,0.531-0.824,1.246-0.824,1.994
		l0,0v10.434c0,0.232,0.092,0.451,0.254,0.617c0.165,0.164,0.386,0.254,0.616,0.254H84.679z"/>
</g>
<g>
	<g>
		<g>
			<path d="M36.574,65.765v-6.223h0.949v0.943c0.242-0.441,0.466-0.732,0.671-0.873s0.431-0.211,0.677-0.211
				c0.355,0,0.717,0.113,1.084,0.34l-0.363,0.979c-0.258-0.152-0.516-0.229-0.773-0.229c-0.23,0-0.438,0.069-0.621,0.208
				s-0.314,0.331-0.393,0.577c-0.117,0.375-0.176,0.785-0.176,1.23v3.258H36.574z"/>
			<path d="M43.144,68.24h-0.791v-5.041c-0.19,0.182-0.44,0.363-0.75,0.545s-0.586,0.318-0.833,0.409v-0.765
				c0.442-0.208,0.829-0.46,1.16-0.756s0.565-0.583,0.703-0.861h0.51V68.24z"/>
		</g>
	</g>
	<g>
		<g>
			<path d="M73.121,24.265v-6.223h0.949v0.943c0.242-0.441,0.466-0.732,0.671-0.873s0.431-0.211,0.677-0.211
				c0.355,0,0.717,0.113,1.084,0.34l-0.363,0.979c-0.258-0.152-0.516-0.229-0.773-0.229c-0.23,0-0.438,0.069-0.621,0.208
				s-0.314,0.331-0.393,0.577c-0.117,0.375-0.176,0.785-0.176,1.23v3.258H73.121z"/>
			<path d="M80.869,25.98v0.76H76.61c-0.006-0.19,0.025-0.374,0.092-0.549c0.108-0.29,0.282-0.576,0.521-0.857
				c0.238-0.281,0.583-0.606,1.035-0.976c0.7-0.574,1.173-1.029,1.419-1.364s0.369-0.653,0.369-0.952
				c0-0.313-0.112-0.578-0.336-0.793c-0.225-0.215-0.517-0.323-0.877-0.323c-0.381,0-0.686,0.114-0.914,0.343
				s-0.344,0.545-0.347,0.949l-0.813-0.083c0.056-0.606,0.265-1.068,0.628-1.387c0.363-0.317,0.851-0.477,1.463-0.477
				c0.618,0,1.107,0.171,1.468,0.514s0.541,0.768,0.541,1.274c0,0.258-0.053,0.511-0.158,0.76s-0.281,0.511-0.525,0.787
				c-0.245,0.275-0.651,0.653-1.22,1.134c-0.475,0.398-0.779,0.669-0.914,0.811s-0.246,0.285-0.334,0.428H80.869z"/>
		</g>
	</g>
	<g>
		<g>
			<path d="M48.994,80.923v-6.223h0.949v0.943c0.242-0.441,0.466-0.732,0.671-0.873s0.431-0.211,0.677-0.211
				c0.355,0,0.717,0.113,1.084,0.34l-0.363,0.979c-0.258-0.152-0.516-0.229-0.773-0.229c-0.23,0-0.438,0.069-0.621,0.208
				s-0.314,0.331-0.393,0.577c-0.117,0.375-0.176,0.785-0.176,1.23v3.258H48.994z"/>
			<path d="M56.742,82.638v0.76h-4.258c-0.006-0.19,0.025-0.374,0.092-0.549c0.108-0.29,0.282-0.576,0.521-0.857
				c0.238-0.281,0.583-0.606,1.035-0.976c0.7-0.574,1.173-1.029,1.419-1.364S55.92,79,55.92,78.701c0-0.313-0.112-0.578-0.336-0.793
				c-0.225-0.215-0.517-0.323-0.877-0.323c-0.381,0-0.686,0.114-0.914,0.343s-0.344,0.545-0.347,0.949l-0.813-0.083
				c0.056-0.606,0.265-1.068,0.628-1.387c0.363-0.317,0.851-0.477,1.463-0.477c0.618,0,1.107,0.171,1.468,0.514
				s0.541,0.768,0.541,1.274c0,0.258-0.053,0.511-0.158,0.76s-0.281,0.511-0.525,0.787c-0.245,0.275-0.651,0.653-1.22,1.134
				c-0.475,0.398-0.779,0.669-0.914,0.811s-0.246,0.285-0.334,0.428H56.742z"/>
		</g>
	</g>
	<g>
		<g>
			<path d="M88.453,37.718v-6.223h0.949v0.943c0.242-0.441,0.466-0.732,0.671-0.873s0.431-0.211,0.677-0.211
				c0.355,0,0.717,0.113,1.084,0.34l-0.363,0.979c-0.258-0.152-0.516-0.229-0.774-0.229c-0.23,0-0.438,0.069-0.621,0.208
				s-0.314,0.331-0.393,0.577c-0.117,0.375-0.176,0.785-0.176,1.23v3.258H88.453z"/>
			<path d="M95.023,40.193h-0.791v-5.041c-0.191,0.182-0.44,0.363-0.75,0.545c-0.309,0.182-0.586,0.318-0.832,0.409v-0.765
				c0.441-0.208,0.828-0.46,1.16-0.756c0.33-0.296,0.564-0.583,0.703-0.861h0.51V40.193z"/>
		</g>
	</g>
	<g>
		
			<line fill="none" stroke="#000000" stroke-width="0.4678" stroke-linecap="round" stroke-linejoin="round" stroke-miterlimit="1" x1="22.95" y1="131.71" x2="22.95" y2="198.376"/>
		
			<line fill="none" stroke="#000000" stroke-width="0.4678" stroke-linecap="round" stroke-linejoin="round" stroke-miterlimit="1" x1="22.95" y1="48.151" x2="22.95" y2="114.55"/>
		<polygon points="21.767,50.41 22.95,41.991 24.133,50.41 		"/>
		<polygon points="24.133,195.224 22.95,203.642 21.767,195.224 		"/>
		<g>
			<g>
				<path d="M17.308,127.013v-8.59h2.959c0.668,0,1.178,0.041,1.529,0.123c0.492,0.113,0.912,0.318,1.26,0.615
					c0.453,0.383,0.792,0.872,1.017,1.468s0.337,1.276,0.337,2.042c0,0.652-0.076,1.23-0.229,1.734s-0.348,0.921-0.586,1.251
					s-0.499,0.59-0.782,0.779s-0.625,0.333-1.025,0.431s-0.86,0.146-1.38,0.146H17.308z M18.444,125.999h1.834
					c0.566,0,1.011-0.053,1.333-0.158s0.579-0.254,0.771-0.445c0.27-0.27,0.479-0.632,0.63-1.087s0.226-1.007,0.226-1.655
					c0-0.898-0.147-1.589-0.442-2.071s-0.653-0.806-1.075-0.97c-0.305-0.117-0.795-0.176-1.471-0.176h-1.805V125.999z"/>
				<path d="M28.401,129.488H27.61v-5.041c-0.19,0.182-0.44,0.363-0.75,0.545s-0.586,0.318-0.833,0.409v-0.765
					c0.442-0.208,0.829-0.46,1.16-0.756s0.565-0.583,0.703-0.861h0.51V129.488z"/>
			</g>
		</g>
	</g>
	
		<line fill="none" stroke="#000000" stroke-width="0.4678" stroke-linecap="round" stroke-linejoin="round" stroke-miterlimit="1" x1="44.077" y1="41.991" x2="19.996" y2="41.991"/>
	
		<line fill="none" stroke="#000000" stroke-width="0.4678" stroke-linecap="round" stroke-linejoin="round" stroke-miterlimit="1" x1="43.743" y1="203.642" x2="19.996" y2="203.642"/>
	<g>
		
			<line fill="none" stroke="#000000" stroke-width="0.4678" stroke-linecap="round" stroke-linejoin="round" stroke-miterlimit="1" x1="4.274" y1="130.82" x2="4.274" y2="210.652"/>
		
			<line fill="none" stroke="#000000" stroke-width="0.4678" stroke-linecap="round" stroke-linejoin="round" stroke-miterlimit="1" x1="4.274" y1="35.924" x2="4.274" y2="115.066"/>
		<polygon points="3.092,37.928 4.274,29.509 5.459,37.928 		"/>
		<polygon points="5.459,208.142 4.274,216.56 3.092,208.142 		"/>
		<g>
			<g>
				<path d="M0.926,127.088v-8.59h2.959c0.668,0,1.178,0.041,1.529,0.123c0.492,0.113,0.912,0.318,1.26,0.615
					c0.453,0.383,0.792,0.872,1.017,1.468s0.337,1.276,0.337,2.042c0,0.652-0.076,1.23-0.229,1.734s-0.348,0.921-0.586,1.251
					s-0.499,0.59-0.782,0.779s-0.625,0.333-1.025,0.431s-0.86,0.146-1.38,0.146H0.926z M2.062,126.074h1.834
					c0.566,0,1.011-0.053,1.333-0.158s0.579-0.254,0.771-0.445c0.27-0.27,0.479-0.632,0.63-1.087s0.226-1.007,0.226-1.655
					c0-0.898-0.147-1.589-0.442-2.071s-0.653-0.806-1.075-0.97c-0.305-0.117-0.795-0.176-1.471-0.176H2.062V126.074z"/>
			</g>
		</g>
	</g>
	
		<line fill="none" stroke="#000000" stroke-width="0.4678" stroke-linecap="round" stroke-linejoin="round" stroke-miterlimit="1" x1="44.613" y1="29.29" x2="1.512" y2="29.29"/>
	
		<line fill="none" stroke="#000000" stroke-width="0.4678" stroke-linecap="round" stroke-linejoin="round" stroke-miterlimit="1" x1="45.29" y1="216.343" x2="1.512" y2="216.343"/>
	<g>
		
			<line fill="none" stroke="#000000" stroke-width="0.4678" stroke-linecap="round" stroke-linejoin="round" stroke-miterlimit="1" x1="72.577" y1="5.869" x2="80.306" y2="5.869"/>
		
			<line fill="none" stroke="#000000" stroke-width="0.4678" stroke-linecap="round" stroke-linejoin="round" stroke-miterlimit="1" x1="52.09" y1="5.869" x2="59.786" y2="5.869"/>
		<polygon points="54.78,7.051 46.361,5.869 54.78,4.687 		"/>
		<polygon points="77.292,4.686 85.71,5.869 77.292,7.052 		"/>
		<g>
			<g>
				<path d="M63.028,10.298v-8.59h3.223c0.656,0,1.183,0.087,1.579,0.261s0.707,0.441,0.932,0.803s0.337,0.739,0.337,1.134
					c0,0.367-0.1,0.713-0.299,1.037s-0.5,0.586-0.902,0.785c0.52,0.152,0.919,0.412,1.198,0.779s0.419,0.801,0.419,1.301
					c0,0.402-0.085,0.776-0.255,1.122s-0.38,0.612-0.63,0.8s-0.563,0.329-0.94,0.425s-0.839,0.144-1.386,0.144H63.028z
					 M64.165,5.317h1.857c0.504,0,0.865-0.033,1.084-0.1c0.289-0.086,0.507-0.229,0.653-0.428s0.22-0.449,0.22-0.75
					c0-0.285-0.068-0.536-0.205-0.753s-0.332-0.365-0.586-0.445s-0.689-0.12-1.307-0.12h-1.717V5.317z M64.165,9.284h2.139
					c0.367,0,0.625-0.014,0.773-0.041c0.262-0.047,0.48-0.125,0.656-0.234s0.32-0.269,0.434-0.478s0.17-0.45,0.17-0.724
					c0-0.32-0.082-0.599-0.246-0.835s-0.392-0.402-0.683-0.498s-0.71-0.144-1.257-0.144h-1.986V9.284z"/>
			</g>
		</g>
	</g>
	
		<line fill="none" stroke="#000000" stroke-width="0.4678" stroke-linecap="round" stroke-linejoin="round" stroke-miterlimit="1" x1="46.361" y1="28.151" x2="46.361" y2="3.414"/>
	
		<line fill="none" stroke="#000000" stroke-width="0.4678" stroke-linecap="round" stroke-linejoin="round" stroke-miterlimit="1" x1="85.71" y1="28.151" x2="85.71" y2="3.414"/>
	<g>
		<g>
			
				<line fill="none" stroke="#000000" stroke-width="0.4678" stroke-linecap="round" stroke-linejoin="round" stroke-miterlimit="1" x1="109.05" y1="130.632" x2="109.05" y2="168.691"/>
			
				<line fill="none" stroke="#000000" stroke-width="0.4678" stroke-linecap="round" stroke-linejoin="round" stroke-miterlimit="1" x1="109.05" y1="78.292" x2="109.05" y2="115.275"/>
			<polygon points="107.866,79.803 109.05,71.384 110.233,79.803 			"/>
			<polygon points="110.233,165.832 109.05,174.25 107.866,165.832 			"/>
			<g>
				<g>
					<path d="M109.937,127.072v-0.785c-0.395,0.617-0.975,0.926-1.74,0.926c-0.496,0-0.952-0.137-1.368-0.41
						s-0.738-0.655-0.967-1.146s-0.343-1.054-0.343-1.69c0-0.621,0.104-1.185,0.311-1.69s0.518-0.894,0.932-1.163
						s0.877-0.404,1.389-0.404c0.375,0,0.709,0.079,1.002,0.237s0.531,0.364,0.715,0.618v-3.082h1.049v8.59H109.937z
						 M106.603,123.967c0,0.797,0.168,1.393,0.504,1.787s0.732,0.592,1.189,0.592c0.461,0,0.853-0.188,1.175-0.565
						s0.483-0.952,0.483-1.726c0-0.852-0.164-1.477-0.492-1.875s-0.732-0.598-1.213-0.598c-0.469,0-0.86,0.191-1.175,0.574
						S106.603,123.143,106.603,123.967z"/>
				</g>
			</g>
		</g>
		
			<line fill="none" stroke="#000000" stroke-width="0.4678" stroke-linecap="round" stroke-linejoin="round" stroke-miterlimit="1" x1="87.604" y1="71.384" x2="112.056" y2="71.384"/>
		
			<line fill="none" stroke="#000000" stroke-width="0.4678" stroke-linecap="round" stroke-linejoin="round" stroke-miterlimit="1" x1="87.604" y1="174.25" x2="112.056" y2="174.25"/>
	</g>
	<g>
		<g>
			
				<line fill="none" stroke="#000000" stroke-width="0.4678" stroke-linecap="round" stroke-linejoin="round" stroke-miterlimit="1" x1="127.749" y1="132.22" x2="127.749" y2="182.65"/>
			
				<line fill="none" stroke="#000000" stroke-width="0.4678" stroke-linecap="round" stroke-linejoin="round" stroke-miterlimit="1" x1="127.749" y1="62.88" x2="127.749" y2="115.06"/>
			<polygon points="126.565,65.678 127.749,57.259 128.933,65.678 			"/>
			<polygon points="128.933,179.955 127.749,188.373 126.565,179.955 			"/>
			<g>
				<g>
					<path d="M126.29,127.071v-0.785c-0.395,0.617-0.975,0.926-1.74,0.926c-0.496,0-0.952-0.137-1.368-0.41
						s-0.738-0.655-0.967-1.146s-0.343-1.054-0.343-1.69c0-0.621,0.104-1.185,0.311-1.69s0.518-0.894,0.932-1.163
						s0.877-0.404,1.389-0.404c0.375,0,0.709,0.079,1.002,0.237s0.531,0.364,0.715,0.618v-3.082h1.049v8.59H126.29z
						 M122.956,123.966c0,0.797,0.168,1.393,0.504,1.787s0.732,0.592,1.189,0.592c0.461,0,0.853-0.188,1.175-0.565
						s0.483-0.952,0.483-1.726c0-0.852-0.164-1.477-0.492-1.875s-0.732-0.598-1.213-0.598c-0.469,0-0.86,0.191-1.175,0.574
						S122.956,123.142,122.956,123.966z"/>
					<path d="M131.489,129.546h-0.791v-5.041c-0.191,0.182-0.44,0.363-0.75,0.545c-0.309,0.182-0.586,0.318-0.832,0.409v-0.765
						c0.441-0.208,0.828-0.46,1.16-0.756c0.33-0.296,0.564-0.583,0.703-0.861h0.51V129.546z"/>
				</g>
			</g>
		</g>
		
			<line fill="none" stroke="#000000" stroke-width="0.4678" stroke-linecap="round" stroke-linejoin="round" stroke-miterlimit="1" x1="87.604" y1="57.259" x2="130.642" y2="57.259"/>
		
			<line fill="none" stroke="#000000" stroke-width="0.4678" stroke-linecap="round" stroke-linejoin="round" stroke-miterlimit="1" x1="87.604" y1="188.373" x2="130.642" y2="188.373"/>
	</g>
</g>
<circle fill="#FFFFFF" stroke="#000000" stroke-width="0.7482" stroke-linecap="round" stroke-linejoin="round" stroke-miterlimit="1" cx="56.526" cy="195.563" r="9.653"/>
<circle fill="#FFFFFF" stroke="#000000" stroke-width="0.7482" stroke-linecap="round" stroke-linejoin="round" stroke-miterlimit="1" cx="56.621" cy="50.103" r="9.653"/>
<g>
	
		<polyline fill="none" stroke="#000000" stroke-width="0.5614" stroke-linecap="round" stroke-linejoin="round" stroke-miterlimit="1" points="
		54.344,200.429 51.453,200.429 51.453,190.201 54.344,190.201 	"/>
	<path fill="none" stroke="#000000" stroke-width="0.3368" stroke-linecap="round" stroke-miterlimit="1" d="M67.169,200.427
		c-1.863-3.213-1.732-7.186,0.34-10.268"/>
	
		<polyline fill="#CAD4EB" stroke="#000000" stroke-width="0.5614" stroke-linecap="round" stroke-linejoin="round" stroke-miterlimit="1" points="
		67.169,200.427 54.344,200.429 54.344,190.201 67.565,190.197 	"/>
</g>
<g>
	
		<polyline fill="none" stroke="#000000" stroke-width="0.5614" stroke-linecap="round" stroke-linejoin="round" stroke-miterlimit="1" points="
		54.344,45.236 51.453,45.236 51.453,55.464 54.344,55.464 	"/>
	<path fill="none" stroke="#000000" stroke-width="0.3368" stroke-linecap="round" stroke-miterlimit="1" d="M67.169,45.241
		c-1.863,3.213-1.732,7.185,0.34,10.267"/>
	
		<polyline fill="#CAD4EB" stroke="#000000" stroke-width="0.5614" stroke-linecap="round" stroke-linejoin="round" stroke-miterlimit="1" points="
		67.169,45.241 54.344,45.236 54.344,55.464 67.565,55.469 	"/>
</g>
<circle fill="#FFFFFF" stroke="#000000" stroke-width="0.7482" stroke-linecap="round" stroke-linejoin="round" stroke-miterlimit="1" cx="75.554" cy="195.563" r="9.653"/>
<circle fill="#FFFFFF" stroke="#000000" stroke-width="0.7482" stroke-linecap="round" stroke-linejoin="round" stroke-miterlimit="1" cx="75.554" cy="50.103" r="9.653"/>
</svg>
