<?xml version="1.0" encoding="utf-8"?>
<!-- Generator: Adobe Illustrator 15.1.0, SVG Export Plug-In . SVG Version: 6.00 Build 0)  -->
<!DOCTYPE svg PUBLIC "-//W3C//DTD SVG 1.1//EN" "http://www.w3.org/Graphics/SVG/1.1/DTD/svg11.dtd">
<svg version="1.1" id="Lager_1" xmlns="http://www.w3.org/2000/svg" xmlns:xlink="http://www.w3.org/1999/xlink" x="0px" y="0px"
	 width="205.736px" height="217.945px" viewBox="0 0 205.736 217.945" enable-background="new 0 0 205.736 217.945"
	 xml:space="preserve">
<g>
	<g>
		
			<line fill="none" stroke="#000000" stroke-width="0.7482" stroke-linecap="round" stroke-linejoin="round" stroke-miterlimit="1" x1="46.386" y1="67.356" x2="46.386" y2="176.759"/>
		
			<line fill="none" stroke="#000000" stroke-width="0.7482" stroke-linecap="round" stroke-linejoin="round" stroke-miterlimit="1" x1="158.067" y1="130.082" x2="158.067" y2="176.716"/>
		
			<line fill="none" stroke="#000000" stroke-width="0.7482" stroke-linecap="round" stroke-linejoin="round" stroke-miterlimit="1" x1="158.067" y1="67.909" x2="158.067" y2="115.111"/>
		
			<line fill="none" stroke="#000000" stroke-width="0.4678" stroke-linecap="round" stroke-linejoin="round" stroke-miterlimit="1" stroke-dasharray="36.3002,1.871,0.9354,1.871" x1="43.099" y1="122.257" x2="161.196" y2="122.257"/>
		
			<line fill="none" stroke="#000000" stroke-width="0.7482" stroke-linecap="round" stroke-linejoin="round" stroke-miterlimit="1" x1="148.843" y1="115.111" x2="158.067" y2="115.111"/>
		
			<line fill="none" stroke="#000000" stroke-width="0.7482" stroke-linecap="round" stroke-linejoin="round" stroke-miterlimit="1" x1="158.067" y1="130.082" x2="148.843" y2="130.082"/>
		
			<path fill="none" stroke="#000000" stroke-width="0.7482" stroke-linecap="round" stroke-linejoin="round" stroke-miterlimit="1" d="
			M148.843,115.111c-4.133,0-7.48,3.354-7.48,7.488c0,4.129,3.348,7.482,7.48,7.482"/>
	</g>
	<g>
		
			<path fill="#CAD4ED" stroke="#000000" stroke-width="0.7482" stroke-linecap="round" stroke-linejoin="round" stroke-miterlimit="1" d="
			M104.384,57.023c3.688,3.352,9.307,3.354,12.996,0.004l-0.004-0.004h38.215c0.121,0.045,2.467,2.387,2.467,2.387v8.933v-0.033
			c0,0.756-0.299,1.475-0.834,2.008c-0.531,0.533-1.25,0.833-2.008,0.833H49.306h-0.097c-0.75,0-1.465-0.298-1.994-0.827
			c-0.529-0.53-0.824-1.243-0.824-1.994l0,0v-8.949c0,0,2.247-2.356,2.478-2.356h36.304h0.107c3.742,3.527,9.583,3.507,13.301-0.048
			l0.045,0.048H104.384L104.384,57.023z"/>
	</g>
	
		<circle fill="#FFFFFF" stroke="#000000" stroke-width="0.7482" stroke-linecap="round" stroke-linejoin="round" stroke-miterlimit="1" cx="91.949" cy="49.867" r="9.654"/>
	
		<polyline fill="none" stroke="#000000" stroke-width="0.5614" stroke-linecap="round" stroke-linejoin="round" stroke-miterlimit="1" points="
		89.672,45.001 86.783,45.001 86.783,55.23 89.672,55.23 	"/>
	
		<polyline fill="#CAD4ED" stroke="#000000" stroke-width="0.5614" stroke-linecap="round" stroke-linejoin="round" stroke-miterlimit="1" points="
		102.497,45.004 89.672,45.001 89.672,55.23 102.894,55.235 	"/>
	<g>
		
			<path fill="#CAD4ED" stroke="#000000" stroke-width="0.7482" stroke-linecap="round" stroke-linejoin="round" stroke-miterlimit="1" d="
			M121.04,40.876v-9.016c0-0.746-0.297-1.458-0.822-1.985c-0.527-0.527-1.238-0.821-1.982-0.821H84.508
			c-0.746,0-1.457,0.294-1.985,0.821c-0.526,0.527-0.821,1.239-0.821,1.985l0,0v8.969c0,0.286,0.13,0.559,0.355,0.739
			c0.226,0.179,0.52,0.248,0.801,0.186c12.232-2.725,24.829-2.719,37.062,0.02c0.273,0.06,0.557-0.005,0.773-0.181
			C120.915,41.419,121.04,41.155,121.04,40.876z"/>
	</g>
	
		<circle fill="#FFFFFF" stroke="#000000" stroke-width="0.7482" stroke-linecap="round" stroke-linejoin="round" stroke-miterlimit="1" cx="110.884" cy="49.867" r="9.654"/>
	<g>
		
			<path fill="#CAD4ED" stroke="#000000" stroke-width="0.7482" stroke-linecap="round" stroke-linejoin="round" stroke-miterlimit="1" d="
			M104.384,188.199c3.688-3.352,9.307-3.357,12.996-0.006l-0.004,0.006h38.215c0.121-0.049,2.467-2.389,2.467-2.389v-8.934v0.033
			c0-0.752-0.299-1.475-0.834-2.008c-0.531-0.533-1.25-0.828-2.008-0.828H49.306h-0.097c-0.75,0-1.465,0.293-1.994,0.824
			c-0.529,0.529-0.824,1.244-0.824,1.994l0,0v8.949c0,0,2.247,2.357,2.478,2.357h36.304h0.107c3.742-3.529,9.583-3.508,13.301,0.045
			l0.045-0.045H104.384L104.384,188.199z"/>
	</g>
	
		<path fill="#FFFFFF" stroke="#000000" stroke-width="0.7482" stroke-linecap="round" stroke-linejoin="round" stroke-miterlimit="1" d="
		M91.949,205.007c5.33,0,9.651-4.324,9.651-9.656c0-5.328-4.321-9.65-9.651-9.65c-5.332,0-9.653,4.322-9.653,9.65
		C82.296,200.683,86.617,205.007,91.949,205.007z"/>
	
		<polyline fill="none" stroke="#000000" stroke-width="0.5614" stroke-linecap="round" stroke-linejoin="round" stroke-miterlimit="1" points="
		89.672,200.216 86.783,200.216 86.783,189.992 89.672,189.992 	"/>
	
		<polyline fill="#CAD4ED" stroke="#000000" stroke-width="0.5614" stroke-linecap="round" stroke-linejoin="round" stroke-miterlimit="1" points="
		102.497,200.216 89.672,200.216 89.672,189.992 102.894,189.984 	"/>
	<g>
		
			<path fill="#CAD4ED" stroke="#000000" stroke-width="0.7482" stroke-linecap="round" stroke-linejoin="round" stroke-miterlimit="1" d="
			M121.04,204.341v9.018c0,0.744-0.297,1.457-0.822,1.984c-0.527,0.525-1.238,0.824-1.982,0.824H84.508
			c-0.746,0-1.457-0.299-1.985-0.824c-0.526-0.527-0.821-1.24-0.821-1.984l0,0v-8.967c0-0.289,0.13-0.559,0.355-0.74
			c0.226-0.18,0.52-0.25,0.801-0.186c12.232,2.725,24.829,2.719,37.062-0.018c0.273-0.064,0.557,0.002,0.773,0.178
			C120.915,203.802,121.04,204.066,121.04,204.341z"/>
	</g>
	
		<path fill="#FFFFFF" stroke="#000000" stroke-width="0.7482" stroke-linecap="round" stroke-linejoin="round" stroke-miterlimit="1" d="
		M110.884,205.007c5.332,0,9.65-4.324,9.65-9.656c0-5.328-4.318-9.65-9.65-9.65s-9.653,4.322-9.653,9.65
		C101.23,200.683,105.552,205.007,110.884,205.007z"/>
	
		<line fill="none" stroke="#000000" stroke-width="0.7482" stroke-linecap="round" stroke-linejoin="round" stroke-miterlimit="1" x1="121.04" y1="40.876" x2="121.04" y2="56.986"/>
	
		<line fill="none" stroke="#000000" stroke-width="0.7482" stroke-linecap="round" stroke-linejoin="round" stroke-miterlimit="1" x1="81.701" y1="40.83" x2="81.701" y2="56.986"/>
	
		<line fill="none" stroke="#000000" stroke-width="0.7482" stroke-linecap="round" stroke-linejoin="round" stroke-miterlimit="1" x1="121.04" y1="204.341" x2="121.04" y2="188.164"/>
	
		<line fill="none" stroke="#000000" stroke-width="0.7482" stroke-linecap="round" stroke-linejoin="round" stroke-miterlimit="1" x1="81.751" y1="204.001" x2="81.751" y2="187.998"/>
</g>
<g>
	<g>
		<g>
			<path d="M108.308,23.821v-6.223h0.949v0.943c0.242-0.441,0.466-0.732,0.671-0.873s0.431-0.211,0.677-0.211
				c0.355,0,0.717,0.113,1.084,0.34l-0.363,0.979c-0.258-0.152-0.516-0.229-0.773-0.229c-0.23,0-0.438,0.069-0.621,0.208
				s-0.314,0.331-0.393,0.577c-0.117,0.375-0.176,0.785-0.176,1.23v3.258H108.308z"/>
			<path d="M116.056,25.536v0.76h-4.258c-0.006-0.19,0.025-0.374,0.092-0.549c0.108-0.29,0.282-0.576,0.521-0.857
				c0.238-0.281,0.583-0.606,1.035-0.976c0.7-0.574,1.173-1.029,1.419-1.364s0.369-0.653,0.369-0.952
				c0-0.313-0.112-0.578-0.336-0.793c-0.225-0.215-0.517-0.323-0.877-0.323c-0.381,0-0.686,0.114-0.914,0.343
				s-0.344,0.545-0.347,0.949l-0.813-0.083c0.056-0.606,0.265-1.068,0.628-1.387c0.363-0.317,0.851-0.477,1.463-0.477
				c0.618,0,1.107,0.171,1.468,0.514s0.541,0.768,0.541,1.274c0,0.258-0.053,0.511-0.158,0.76s-0.281,0.511-0.525,0.787
				c-0.245,0.275-0.651,0.653-1.22,1.134c-0.475,0.398-0.779,0.669-0.914,0.811s-0.246,0.285-0.334,0.428H116.056z"/>
		</g>
		<g>
			<path d="M123.544,37.855v-6.223h0.949v0.943c0.242-0.441,0.466-0.732,0.671-0.873s0.431-0.211,0.677-0.211
				c0.355,0,0.717,0.113,1.084,0.34l-0.363,0.979c-0.258-0.152-0.516-0.229-0.773-0.229c-0.23,0-0.438,0.069-0.621,0.208
				s-0.314,0.331-0.393,0.577c-0.117,0.375-0.176,0.785-0.176,1.23v3.258H123.544z"/>
			<path d="M130.114,40.331h-0.791V35.29c-0.19,0.182-0.44,0.363-0.75,0.545s-0.586,0.318-0.833,0.409v-0.765
				c0.442-0.208,0.829-0.46,1.16-0.756s0.565-0.583,0.703-0.861h0.51V40.331z"/>
		</g>
		<g>
			
				<line fill="none" stroke="#000000" stroke-width="0.4678" stroke-linecap="round" stroke-linejoin="round" stroke-miterlimit="1" x1="22.87" y1="131.742" x2="22.87" y2="197.916"/>
			
				<line fill="none" stroke="#000000" stroke-width="0.4678" stroke-linecap="round" stroke-linejoin="round" stroke-miterlimit="1" x1="22.87" y1="47.249" x2="22.87" y2="114.111"/>
			<polygon points="21.685,50.349 22.87,41.93 24.053,50.349 			"/>
			<polygon points="24.053,194.867 22.87,203.283 21.685,194.867 			"/>
			<g>
				<path d="M17.434,126.658v-8.59h2.959c0.668,0,1.178,0.041,1.529,0.123c0.492,0.113,0.912,0.318,1.26,0.615
					c0.453,0.383,0.792,0.872,1.017,1.468s0.337,1.276,0.337,2.042c0,0.652-0.076,1.23-0.229,1.734s-0.348,0.921-0.586,1.251
					s-0.499,0.59-0.782,0.779s-0.625,0.333-1.025,0.431s-0.86,0.146-1.38,0.146H17.434z M18.571,125.645h1.834
					c0.566,0,1.011-0.053,1.333-0.158s0.579-0.254,0.771-0.445c0.27-0.27,0.479-0.632,0.63-1.087s0.226-1.007,0.226-1.655
					c0-0.898-0.147-1.589-0.442-2.071s-0.653-0.806-1.075-0.97c-0.305-0.117-0.795-0.176-1.471-0.176h-1.805V125.645z"/>
				<path d="M28.527,129.133h-0.791v-5.041c-0.19,0.182-0.44,0.363-0.75,0.545s-0.586,0.318-0.833,0.409v-0.765
					c0.442-0.208,0.829-0.46,1.16-0.756s0.565-0.583,0.703-0.861h0.51V129.133z"/>
			</g>
		</g>
		
			<line fill="none" stroke="#000000" stroke-width="0.4678" stroke-linecap="round" stroke-linejoin="round" stroke-miterlimit="1" x1="80.568" y1="41.811" x2="19.915" y2="41.811"/>
		
			<line fill="none" stroke="#000000" stroke-width="0.4678" stroke-linecap="round" stroke-linejoin="round" stroke-miterlimit="1" x1="80.257" y1="203.283" x2="19.915" y2="203.283"/>
		<g>
			
				<line fill="none" stroke="#000000" stroke-width="0.4678" stroke-linecap="round" stroke-linejoin="round" stroke-miterlimit="1" x1="4.101" y1="130.695" x2="4.101" y2="209.583"/>
			
				<line fill="none" stroke="#000000" stroke-width="0.4678" stroke-linecap="round" stroke-linejoin="round" stroke-miterlimit="1" x1="4.101" y1="33.915" x2="4.101" y2="114.001"/>
			<polygon points="2.918,37.69 4.101,29.271 5.286,37.69 			"/>
			<polygon points="5.286,207.8 4.101,216.216 2.918,207.8 			"/>
			<g>
				<path d="M0.926,126.672v-8.59h2.959c0.668,0,1.178,0.041,1.529,0.123c0.492,0.113,0.912,0.318,1.26,0.615
					c0.453,0.383,0.792,0.872,1.017,1.468s0.337,1.276,0.337,2.042c0,0.652-0.076,1.23-0.229,1.734s-0.348,0.921-0.586,1.251
					s-0.499,0.59-0.782,0.779s-0.625,0.333-1.025,0.431s-0.86,0.146-1.38,0.146H0.926z M2.063,125.658h1.834
					c0.566,0,1.011-0.053,1.333-0.158s0.579-0.254,0.771-0.445c0.27-0.27,0.479-0.632,0.63-1.087s0.226-1.007,0.226-1.655
					c0-0.898-0.147-1.589-0.442-2.071s-0.653-0.806-1.075-0.97c-0.305-0.117-0.795-0.176-1.471-0.176H2.063V125.658z"/>
			</g>
		</g>
		
			<line fill="none" stroke="#000000" stroke-width="0.4678" stroke-linecap="round" stroke-linejoin="round" stroke-miterlimit="1" x1="80.202" y1="29.054" x2="1.338" y2="29.054"/>
		
			<line fill="none" stroke="#000000" stroke-width="0.4678" stroke-linecap="round" stroke-linejoin="round" stroke-miterlimit="1" x1="80.881" y1="216" x2="1.338" y2="216"/>
		<g>
			<g>
				
					<line fill="none" stroke="#000000" stroke-width="0.4678" stroke-linecap="round" stroke-linejoin="round" stroke-miterlimit="1" x1="181.476" y1="130.759" x2="181.476" y2="168.25"/>
				
					<line fill="none" stroke="#000000" stroke-width="0.4678" stroke-linecap="round" stroke-linejoin="round" stroke-miterlimit="1" x1="181.476" y1="76.112" x2="181.476" y2="116.25"/>
				<polygon points="180.294,79.198 181.476,70.779 182.659,79.198 				"/>
				<polygon points="182.659,165.164 181.476,173.582 180.294,165.164 				"/>
				<g>
					<path d="M182.205,126.658v-0.785c-0.395,0.617-0.975,0.926-1.74,0.926c-0.496,0-0.953-0.137-1.369-0.41
						s-0.738-0.655-0.967-1.146s-0.342-1.054-0.342-1.69c0-0.621,0.104-1.185,0.311-1.69s0.518-0.894,0.932-1.163
						s0.877-0.404,1.389-0.404c0.375,0,0.709,0.079,1.002,0.237s0.531,0.364,0.715,0.618v-3.082h1.049v8.59H182.205z
						 M178.871,123.553c0,0.797,0.168,1.393,0.504,1.787s0.732,0.592,1.189,0.592c0.461,0,0.852-0.188,1.174-0.565
						s0.484-0.952,0.484-1.726c0-0.852-0.164-1.477-0.492-1.875s-0.732-0.598-1.213-0.598c-0.469,0-0.861,0.191-1.176,0.574
						S178.871,122.729,178.871,123.553z"/>
				</g>
			</g>
			
				<line fill="none" stroke="#000000" stroke-width="0.4678" stroke-linecap="round" stroke-linejoin="round" stroke-miterlimit="1" x1="159.716" y1="70.779" x2="184.483" y2="70.779"/>
			
				<line fill="none" stroke="#000000" stroke-width="0.4678" stroke-linecap="round" stroke-linejoin="round" stroke-miterlimit="1" x1="159.716" y1="173.582" x2="184.483" y2="173.582"/>
		</g>
		<g>
			
				<line fill="none" stroke="#000000" stroke-width="0.4678" stroke-linecap="round" stroke-linejoin="round" stroke-miterlimit="1" x1="200.245" y1="132.183" x2="200.245" y2="182.582"/>
			
				<line fill="none" stroke="#000000" stroke-width="0.4678" stroke-linecap="round" stroke-linejoin="round" stroke-miterlimit="1" x1="200.245" y1="64.249" x2="200.245" y2="114.083"/>
			<polygon points="199.062,65.597 200.245,57.178 201.427,65.597 			"/>
			<polygon points="201.427,179.734 200.245,188.152 199.062,179.734 			"/>
			<g>
				<path d="M198.885,126.658v-0.785c-0.395,0.617-0.975,0.926-1.74,0.926c-0.496,0-0.951-0.137-1.367-0.41
					s-0.738-0.655-0.967-1.146s-0.344-1.054-0.344-1.69c0-0.621,0.104-1.185,0.311-1.69s0.518-0.894,0.932-1.163
					s0.877-0.404,1.389-0.404c0.375,0,0.709,0.079,1.002,0.237s0.531,0.364,0.715,0.618v-3.082h1.049v8.59H198.885z
					 M195.551,123.553c0,0.797,0.168,1.393,0.504,1.787s0.732,0.592,1.189,0.592c0.461,0,0.854-0.188,1.176-0.565
					s0.482-0.952,0.482-1.726c0-0.852-0.164-1.477-0.492-1.875s-0.732-0.598-1.213-0.598c-0.469,0-0.859,0.191-1.174,0.574
					S195.551,122.729,195.551,123.553z"/>
				<path d="M204.084,129.133h-0.791v-5.041c-0.191,0.182-0.439,0.363-0.75,0.545c-0.309,0.182-0.586,0.318-0.832,0.409v-0.765
					c0.441-0.208,0.828-0.46,1.16-0.756c0.33-0.296,0.564-0.583,0.703-0.861h0.51V129.133z"/>
			</g>
		</g>
		
			<line fill="none" stroke="#000000" stroke-width="0.4678" stroke-linecap="round" stroke-linejoin="round" stroke-miterlimit="1" x1="158.017" y1="57.223" x2="203.251" y2="57.223"/>
		
			<line fill="none" stroke="#000000" stroke-width="0.4678" stroke-linecap="round" stroke-linejoin="round" stroke-miterlimit="1" x1="158.017" y1="188.152" x2="203.251" y2="188.152"/>
		<g>
			
				<line fill="none" stroke="#000000" stroke-width="0.4678" stroke-linecap="round" stroke-linejoin="round" stroke-miterlimit="1" x1="108.69" y1="95" x2="152.876" y2="95"/>
			
				<line fill="none" stroke="#000000" stroke-width="0.4678" stroke-linecap="round" stroke-linejoin="round" stroke-miterlimit="1" x1="52.208" y1="95" x2="92.788" y2="95"/>
			<g>
				<path d="M97.167,99.472v-8.59h3.223c0.656,0,1.183,0.087,1.579,0.261s0.707,0.441,0.932,0.803s0.337,0.739,0.337,1.134
					c0,0.367-0.1,0.713-0.299,1.037s-0.5,0.586-0.902,0.785c0.52,0.152,0.919,0.412,1.198,0.779s0.419,0.801,0.419,1.301
					c0,0.402-0.085,0.776-0.255,1.122s-0.38,0.612-0.63,0.8s-0.563,0.329-0.94,0.425s-0.839,0.144-1.386,0.144H97.167z
					 M98.303,94.491h1.857c0.504,0,0.865-0.033,1.084-0.1c0.289-0.086,0.507-0.229,0.653-0.428s0.22-0.449,0.22-0.75
					c0-0.285-0.068-0.536-0.205-0.753s-0.332-0.365-0.586-0.445s-0.689-0.12-1.307-0.12h-1.717V94.491z M98.303,98.458h2.139
					c0.367,0,0.625-0.014,0.773-0.041c0.262-0.047,0.48-0.125,0.656-0.234s0.32-0.269,0.434-0.478s0.17-0.45,0.17-0.724
					c0-0.32-0.082-0.599-0.246-0.835s-0.392-0.402-0.683-0.498s-0.71-0.144-1.257-0.144h-1.986V98.458z"/>
			</g>
		</g>
		
			<line fill="none" stroke="#000000" stroke-width="0.4678" stroke-linecap="round" stroke-linejoin="round" stroke-miterlimit="1" x1="143.224" y1="114.878" x2="117.501" y2="114.878"/>
		
			<line fill="none" stroke="#000000" stroke-width="0.4678" stroke-linecap="round" stroke-linejoin="round" stroke-miterlimit="1" x1="143.224" y1="130.082" x2="117.294" y2="130.082"/>
		
			<line fill="none" stroke="#000000" stroke-width="0.4678" stroke-linecap="round" stroke-linejoin="round" stroke-miterlimit="1" x1="121.591" y1="109.249" x2="121.591" y2="103.083"/>
		
			<line fill="none" stroke="#000000" stroke-width="0.4678" stroke-linecap="round" stroke-linejoin="round" stroke-miterlimit="1" x1="121.591" y1="134.916" x2="121.591" y2="142.166"/>
		
			<line fill="none" stroke="#000000" stroke-width="0.4678" stroke-linecap="round" stroke-linejoin="round" stroke-miterlimit="1" x1="141.567" y1="128.326" x2="141.567" y2="157.066"/>
		
			<line fill="none" stroke="#000000" stroke-width="0.4678" stroke-linecap="round" stroke-linejoin="round" stroke-miterlimit="1" x1="136.208" y1="151.789" x2="128.929" y2="151.789"/>
		
			<line fill="none" stroke="#000000" stroke-width="0.4678" stroke-linecap="round" stroke-linejoin="round" stroke-miterlimit="1" x1="163.542" y1="151.789" x2="171.392" y2="151.789"/>
		<g>
			<g>
				
					<line fill="none" stroke="#000000" stroke-width="0.4678" stroke-linecap="round" stroke-linejoin="round" stroke-miterlimit="1" x1="107.776" y1="6.157" x2="116.208" y2="6.157"/>
				
					<line fill="none" stroke="#000000" stroke-width="0.4678" stroke-linecap="round" stroke-linejoin="round" stroke-miterlimit="1" x1="86.541" y1="6.157" x2="94.661" y2="6.157"/>
				<g>
					<path d="M104.496,7.286l1.137,0.287c-0.238,0.934-0.667,1.646-1.286,2.136s-1.376,0.735-2.271,0.735
						c-0.926,0-1.679-0.188-2.259-0.565s-1.021-0.923-1.324-1.638s-0.454-1.482-0.454-2.303c0-0.895,0.171-1.675,0.513-2.341
						s0.828-1.172,1.459-1.518s1.325-0.519,2.083-0.519c0.859,0,1.582,0.219,2.168,0.656s0.994,1.053,1.225,1.846l-1.119,0.264
						c-0.199-0.625-0.488-1.08-0.867-1.365s-0.855-0.428-1.43-0.428c-0.66,0-1.212,0.158-1.655,0.475S99.66,3.75,99.48,4.283
						s-0.27,1.083-0.27,1.649c0,0.73,0.106,1.368,0.319,1.913s0.544,0.952,0.993,1.222s0.936,0.404,1.459,0.404
						c0.637,0,1.176-0.184,1.617-0.551S104.339,8.009,104.496,7.286z"/>
				</g>
			</g>
			
				<line fill="none" stroke="#000000" stroke-width="0.4678" stroke-linecap="round" stroke-linejoin="round" stroke-miterlimit="1" x1="81.749" y1="27.069" x2="81.749" y2="2.881"/>
			
				<line fill="none" stroke="#000000" stroke-width="0.4678" stroke-linecap="round" stroke-linejoin="round" stroke-miterlimit="1" x1="121.157" y1="27.369" x2="121.157" y2="2.881"/>
		</g>
	</g>
	<polygon points="112.737,4.974 121.157,6.157 112.737,7.339 	"/>
	<polygon points="90.168,7.34 81.749,6.157 90.168,4.973 	"/>
	<polygon points="149.942,93.818 158.36,95 149.942,96.184 	"/>
	<polygon points="55.177,96.184 46.758,95 55.177,93.818 	"/>
	<polygon points="122.776,106.669 121.591,115.089 120.409,106.669 	"/>
	<polygon points="120.409,138.474 121.591,130.058 122.776,138.474 	"/>
	<polygon points="133.149,150.603 141.567,151.789 133.149,152.972 	"/>
	<polygon points="166.726,152.972 158.31,151.789 166.726,150.603 	"/>
</g>
<g>
	<g>
		<path d="M108.862,125.082v-1.014h5.561v0.82c-0.547,0.582-1.089,1.355-1.626,2.32s-0.952,1.957-1.245,2.977
			c-0.211,0.719-0.346,1.506-0.404,2.361h-1.084c0.012-0.676,0.145-1.492,0.398-2.449s0.618-1.88,1.093-2.769
			s0.979-1.638,1.515-2.247H108.862z"/>
	</g>
</g>
<g>
	<g>
		<path d="M146.148,154.571l1.014-0.094c0.086,0.477,0.25,0.822,0.492,1.037s0.553,0.322,0.932,0.322
			c0.324,0,0.608-0.074,0.853-0.223s0.444-0.347,0.601-0.595s0.287-0.583,0.393-1.005s0.158-0.852,0.158-1.289
			c0-0.047-0.002-0.117-0.006-0.211c-0.211,0.336-0.499,0.608-0.864,0.817s-0.761,0.313-1.187,0.313
			c-0.711,0-1.312-0.258-1.805-0.773s-0.738-1.195-0.738-2.039c0-0.871,0.257-1.572,0.771-2.104s1.157-0.797,1.931-0.797
			c0.559,0,1.069,0.15,1.532,0.451c0.462,0.301,0.814,0.729,1.054,1.286s0.361,1.362,0.361,2.417c0,1.098-0.119,1.972-0.357,2.622
			s-0.594,1.146-1.064,1.485c-0.471,0.34-1.022,0.51-1.655,0.51c-0.672,0-1.221-0.187-1.646-0.56S146.234,155.247,146.148,154.571z
			 M150.466,150.78c0-0.605-0.161-1.086-0.483-1.441s-0.71-0.533-1.163-0.533c-0.469,0-0.877,0.191-1.225,0.574
			s-0.521,0.879-0.521,1.488c0,0.547,0.165,0.991,0.495,1.333s0.737,0.513,1.222,0.513c0.488,0,0.89-0.171,1.204-0.513
			S150.466,151.385,150.466,150.78z"/>
	</g>
</g>
</svg>
