<?xml version="1.0" encoding="utf-8"?>
<!-- Generator: Adobe Illustrator 15.1.0, SVG Export Plug-In . SVG Version: 6.00 Build 0)  -->
<!DOCTYPE svg PUBLIC "-//W3C//DTD SVG 1.1//EN" "http://www.w3.org/Graphics/SVG/1.1/DTD/svg11.dtd">
<svg version="1.1" id="Lager_1" xmlns="http://www.w3.org/2000/svg" xmlns:xlink="http://www.w3.org/1999/xlink" x="0px" y="0px"
	 width="266.667px" height="247.667px" viewBox="0 0 266.667 247.667" enable-background="new 0 0 266.667 247.667"
	 xml:space="preserve">
<line fill="none" stroke="#000000" stroke-width="0.7483" stroke-linejoin="round" stroke-miterlimit="3.8637" x1="184.723" y1="31.501" x2="184.723" y2="218.587"/>
<line fill="none" stroke="#000000" stroke-width="0.7483" stroke-linejoin="round" stroke-miterlimit="3.8637" x1="134.529" y1="92.568" x2="134.529" y2="158.087"/>
<polygon fill="#D1D3D4" points="184.708,4.668 103.287,4.668 103.287,92.568 134.529,92.568 134.529,31.501 184.723,31.501 "/>
<polygon fill="#D1D3D4" points="184.723,218.587 134.529,218.587 134.529,158.087 103.287,158.087 103.287,245.419 184.708,245.419 
	"/>
<polyline fill="none" stroke="#000000" stroke-width="0.7483" stroke-linejoin="round" stroke-miterlimit="3.8637" points="
	103.287,92.568 134.529,92.568 134.529,31.501 184.723,31.501 184.708,4.668 "/>
<polyline fill="none" stroke="#000000" stroke-width="0.7483" stroke-linejoin="round" stroke-miterlimit="3.8637" points="
	184.708,245.419 184.723,218.587 134.529,218.587 134.529,158.087 103.287,158.087 "/>
<linearGradient id="SVGID_1_" gradientUnits="userSpaceOnUse" x1="151.1909" y1="95.1851" x2="151.1909" y2="155.4043">
	<stop  offset="0" style="stop-color:#D1D3D4"/>
	<stop  offset="0.3" style="stop-color:#FFFFFF"/>
	<stop  offset="0.441" style="stop-color:#E9EAEB"/>
	<stop  offset="0.5966" style="stop-color:#DCDDDE"/>
	<stop  offset="0.7708" style="stop-color:#D4D5D7"/>
	<stop  offset="1" style="stop-color:#D1D3D4"/>
</linearGradient>
<polyline fill="url(#SVGID_1_)" points="89.445,155.404 204.151,155.404 212.936,152.949 212.936,97.673 204.151,95.185 
	89.445,95.185 "/>
<polyline fill="none" stroke="#000000" stroke-width="0.7483" stroke-linejoin="round" stroke-miterlimit="3.8637" points="
	89.445,155.404 204.151,155.404 212.936,152.949 212.936,97.673 204.151,95.185 89.445,95.185 "/>
<line fill="none" stroke="#000000" stroke-width="0.7483" stroke-linejoin="round" stroke-miterlimit="3.8637" x1="204.151" y1="95.185" x2="204.151" y2="155.404"/>
<g>
	<path d="M235.16,129.033v-0.785c-0.395,0.617-0.975,0.926-1.74,0.926c-0.496,0-0.952-0.137-1.368-0.41s-0.738-0.655-0.967-1.146
		s-0.343-1.054-0.343-1.69c0-0.621,0.104-1.185,0.311-1.69s0.518-0.894,0.932-1.163s0.877-0.404,1.389-0.404
		c0.375,0,0.709,0.079,1.002,0.237s0.531,0.364,0.715,0.618v-3.082h1.049v8.59H235.16z M231.826,125.927
		c0,0.797,0.168,1.393,0.504,1.787s0.732,0.592,1.189,0.592c0.461,0,0.853-0.188,1.175-0.565s0.483-0.952,0.483-1.726
		c0-0.852-0.164-1.477-0.492-1.875s-0.732-0.598-1.213-0.598c-0.469,0-0.86,0.191-1.175,0.574S231.826,125.103,231.826,125.927z"/>
	<path d="M240.359,131.513h-0.791v-5.041c-0.191,0.183-0.44,0.364-0.75,0.545c-0.309,0.183-0.586,0.318-0.832,0.409v-0.765
		c0.441-0.208,0.828-0.46,1.16-0.756c0.33-0.296,0.564-0.583,0.703-0.861h0.51V131.513z"/>
</g>
<g>
	
		<line fill="none" stroke="#000000" stroke-width="0.4677" stroke-linecap="round" stroke-miterlimit="1" x1="207.936" y1="95.183" x2="239.014" y2="95.183"/>
	<g>
		
			<line fill="none" stroke="#000000" stroke-width="0.4677" stroke-linecap="round" stroke-miterlimit="1" x1="236.178" y1="101.455" x2="236.178" y2="117.106"/>
		<polygon points="235.018,103.582 236.178,95.183 237.338,103.582 		"/>
	</g>
</g>
<g>
	
		<line fill="none" stroke="#000000" stroke-width="0.4677" stroke-linecap="round" stroke-miterlimit="1" x1="207.936" y1="155.404" x2="239.014" y2="155.404"/>
	<g>
		
			<line fill="none" stroke="#000000" stroke-width="0.4677" stroke-linecap="round" stroke-miterlimit="1" x1="236.178" y1="133.373" x2="236.178" y2="149.263"/>
		<polygon points="237.338,147.15 236.178,155.404 235.018,147.15 		"/>
	</g>
</g>
<g>
	<path d="M251.475,129.033v-8.59h2.959c0.668,0,1.178,0.041,1.529,0.123c0.492,0.113,0.912,0.318,1.26,0.615
		c0.453,0.383,0.792,0.872,1.017,1.468s0.337,1.276,0.337,2.042c0,0.652-0.076,1.23-0.229,1.734s-0.348,0.921-0.586,1.251
		s-0.499,0.59-0.782,0.779s-0.625,0.333-1.025,0.431s-0.86,0.146-1.38,0.146H251.475z M252.612,128.019h1.834
		c0.566,0,1.011-0.053,1.333-0.158s0.579-0.254,0.771-0.445c0.27-0.27,0.479-0.632,0.63-1.087s0.226-1.007,0.226-1.655
		c0-0.898-0.147-1.589-0.442-2.071s-0.653-0.806-1.075-0.97c-0.305-0.117-0.795-0.176-1.471-0.176h-1.805V128.019z"/>
</g>
<g>
	
		<line fill="none" stroke="#000000" stroke-width="0.4677" stroke-linecap="round" stroke-miterlimit="1" x1="186.723" y1="31.501" x2="257.725" y2="31.501"/>
	<g>
		
			<line fill="none" stroke="#000000" stroke-width="0.4677" stroke-linecap="round" stroke-miterlimit="1" x1="254.889" y1="37.773" x2="254.889" y2="118.241"/>
		<polygon points="253.729,39.9 254.889,31.501 256.049,39.9 		"/>
	</g>
</g>
<g>
	
		<line fill="none" stroke="#000000" stroke-width="0.4677" stroke-linecap="round" stroke-miterlimit="1" x1="186.723" y1="218.587" x2="257.725" y2="218.587"/>
	<g>
		
			<line fill="none" stroke="#000000" stroke-width="0.4677" stroke-linecap="round" stroke-miterlimit="1" x1="254.889" y1="132.24" x2="254.889" y2="212.447"/>
		<polygon points="256.049,210.333 254.889,218.587 253.729,210.333 		"/>
	</g>
</g>
<g>
	
		<line fill="none" stroke="#000000" stroke-width="0.7483" stroke-linejoin="round" stroke-miterlimit="3.8637" x1="46.149" y1="83.708" x2="46.149" y2="125.044"/>
	
		<line fill="none" stroke="#000000" stroke-width="0.4677" stroke-linecap="round" stroke-linejoin="round" stroke-miterlimit="3.8637" x1="20.911" y1="85.381" x2="20.911" y2="125.044"/>
	
		<line fill="none" stroke="#000000" stroke-width="0.4677" stroke-linecap="round" stroke-linejoin="round" stroke-miterlimit="3.8637" x1="34.458" y1="95.183" x2="34.458" y2="125.044"/>
	
		<line fill="none" stroke="#000000" stroke-width="0.7483" stroke-linejoin="round" stroke-miterlimit="3.8637" x1="49.619" y1="61.185" x2="49.619" y2="125.044"/>
	
		<line fill="none" stroke="#000000" stroke-width="0.7483" stroke-linejoin="round" stroke-miterlimit="3.8637" x1="13.017" y1="81.455" x2="13.017" y2="125.044"/>
	
		<line fill="none" stroke="#000000" stroke-width="0.7483" stroke-linejoin="round" stroke-miterlimit="3.8637" x1="6.849" y1="125.044" x2="6.849" y2="81.455"/>
	
		<line fill="none" stroke="#000000" stroke-width="0.7483" stroke-linejoin="round" stroke-miterlimit="3.8637" x1="56.322" y1="61.185" x2="56.322" y2="125.044"/>
	
		<line fill="none" stroke="#000000" stroke-width="0.7483" stroke-linejoin="round" stroke-miterlimit="3.8637" x1="41.642" y1="95.021" x2="41.642" y2="125.044"/>
	
		<line fill="none" stroke="#000000" stroke-width="0.4677" stroke-linecap="round" stroke-dasharray="33.5,1.7,0.86,1.7" x1="2.208" y1="125.044" x2="60.292" y2="125.044"/>
	<g>
		<g>
			<path d="M30.198,12.558h-0.979v-8.59h1.055v3.064c0.445-0.559,1.014-0.838,1.705-0.838c0.383,0,0.745,0.077,1.087,0.231
				s0.623,0.371,0.844,0.65s0.394,0.616,0.519,1.011s0.188,0.816,0.188,1.266c0,1.066-0.264,1.891-0.791,2.473
				s-1.16,0.873-1.898,0.873c-0.734,0-1.311-0.307-1.729-0.92V12.558z M30.186,9.4c0,0.746,0.102,1.285,0.305,1.617
				c0.332,0.543,0.781,0.814,1.348,0.814c0.461,0,0.859-0.2,1.195-0.601s0.504-0.997,0.504-1.79c0-0.812-0.161-1.412-0.483-1.799
				s-0.712-0.58-1.169-0.58c-0.461,0-0.859,0.2-1.195,0.601S30.186,8.642,30.186,9.4z"/>
		</g>
		<g>
			
				<line fill="none" stroke="#000000" stroke-width="0.4677" stroke-linecap="round" stroke-miterlimit="1" x1="6.849" y1="32.242" x2="6.849" y2="5.423"/>
			<g>
				
					<line fill="none" stroke="#000000" stroke-width="0.4677" stroke-linecap="round" stroke-miterlimit="1" x1="13.121" y1="8.257" x2="26.574" y2="8.257"/>
				<polygon points="15.248,9.417 6.849,8.257 15.248,7.097 				"/>
			</g>
		</g>
		<g>
			
				<line fill="none" stroke="#000000" stroke-width="0.4677" stroke-linecap="round" stroke-miterlimit="1" x1="56.322" y1="32.242" x2="56.322" y2="5.423"/>
			<g>
				
					<line fill="none" stroke="#000000" stroke-width="0.4677" stroke-linecap="round" stroke-miterlimit="1" x1="36.292" y1="8.257" x2="50.181" y2="8.257"/>
				<polygon points="48.068,7.097 56.322,8.257 48.068,9.417 				"/>
			</g>
		</g>
	</g>
	
		<path fill-rule="evenodd" clip-rule="evenodd" fill="#78A99A" stroke="#000000" stroke-width="0.7483" stroke-linecap="round" stroke-linejoin="round" stroke-miterlimit="2.6131" d="
		M56.322,61.185h-6.703V37.246H12.914v44.209H6.849V36.927c0-3.125,1.537-5.426,4.947-5.426h39.258c3.387,0,5.268,1.852,5.268,5.107
		V61.185L56.322,61.185L56.322,61.185z"/>
	
		<path fill-rule="evenodd" clip-rule="evenodd" fill="#9ED193" stroke="#000000" stroke-width="0.7483" stroke-linecap="round" stroke-linejoin="round" stroke-miterlimit="2.6131" d="
		M49.619,59.494l-16.598,1.373c-0.947,0.27-1.283,0.43-2.074,0.957L19.935,73.316c-0.699,2.1-0.205,3.623,2.395,3.188l11.01-1.752
		c1.596-0.199,4.285-0.006,4.309,2.141c-0.199-0.023-0.406-0.033-0.613-0.033c-3.25,0-5.91,2.66-5.91,5.91s2.66,5.908,5.91,5.908
		s5.912-2.658,5.912-5.908c0-0.488-0.062-0.963-0.174-1.418l0.143-0.059c1.986-0.33,3.637,0.496,3.193,2.713l-4.467,11.016
		l-6.066-1.281c-0.707-0.141-0.996-0.277-1.596-0.637l-12.607-9.26c-2.326-0.93-4.914-0.314-6.703-1.273
		c-0.707-0.322-0.793-0.934-1.596-1.115l-0.16-1.039v-43.17h36.705V59.494L49.619,59.494z"/>
	<linearGradient id="SVGID_2_" gradientUnits="userSpaceOnUse" x1="31.1245" y1="82.7681" x2="42.9468" y2="82.7681">
		<stop  offset="0" style="stop-color:#A7BBD6"/>
		<stop  offset="0.3516" style="stop-color:#CED8E8"/>
		<stop  offset="0.5129" style="stop-color:#CED8E8"/>
		<stop  offset="0.6494" style="stop-color:#BECCE1"/>
		<stop  offset="0.8114" style="stop-color:#B1C2DB"/>
		<stop  offset="0.8381" style="stop-color:#B1C2DB"/>
		<stop  offset="1" style="stop-color:#B1C2DB"/>
	</linearGradient>
	
		<path fill="url(#SVGID_2_)" stroke="#000000" stroke-width="0.7483" stroke-linecap="round" stroke-linejoin="round" stroke-miterlimit="2.6131" d="
		M37.035,88.677c-3.25,0-5.91-2.658-5.91-5.908s2.66-5.91,5.91-5.91s5.912,2.66,5.912,5.91S40.285,88.677,37.035,88.677
		L37.035,88.677z M37.035,86.267c1.928,0,3.502-1.576,3.502-3.498c0-1.928-1.574-3.502-3.502-3.502s-3.504,1.574-3.504,3.502
		C33.531,84.691,35.107,86.267,37.035,86.267L37.035,86.267z"/>
	
		<line fill="none" stroke="#000000" stroke-width="0.7483" stroke-linejoin="round" stroke-miterlimit="3.8637" x1="46.149" y1="166.38" x2="46.149" y2="125.044"/>
	
		<line fill="none" stroke="#000000" stroke-width="0.4677" stroke-linecap="round" stroke-linejoin="round" stroke-miterlimit="3.8637" x1="20.911" y1="164.708" x2="20.911" y2="125.044"/>
	
		<line fill="none" stroke="#000000" stroke-width="0.4677" stroke-linecap="round" stroke-linejoin="round" stroke-miterlimit="3.8637" x1="34.458" y1="154.906" x2="34.458" y2="125.044"/>
	
		<line fill="none" stroke="#000000" stroke-width="0.7483" stroke-linejoin="round" stroke-miterlimit="3.8637" x1="49.619" y1="188.904" x2="49.619" y2="125.044"/>
	
		<line fill="none" stroke="#000000" stroke-width="0.7483" stroke-linejoin="round" stroke-miterlimit="3.8637" x1="13.017" y1="168.634" x2="13.017" y2="125.044"/>
	
		<line fill="none" stroke="#000000" stroke-width="0.7483" stroke-linejoin="round" stroke-miterlimit="3.8637" x1="6.849" y1="125.044" x2="6.849" y2="168.634"/>
	
		<line fill="none" stroke="#000000" stroke-width="0.7483" stroke-linejoin="round" stroke-miterlimit="3.8637" x1="56.322" y1="188.904" x2="56.322" y2="125.044"/>
	
		<line fill="none" stroke="#000000" stroke-width="0.7483" stroke-linejoin="round" stroke-miterlimit="3.8637" x1="41.642" y1="155.068" x2="41.642" y2="125.044"/>
	
		<path fill-rule="evenodd" clip-rule="evenodd" fill="#78A99A" stroke="#000000" stroke-width="0.7483" stroke-linecap="round" stroke-linejoin="round" stroke-miterlimit="2.6131" d="
		M56.322,188.904h-6.703v23.939H12.914v-44.209H6.849v44.527c0,3.125,1.537,5.426,4.947,5.426h39.258
		c3.387,0,5.268-1.852,5.268-5.107V188.904L56.322,188.904L56.322,188.904z"/>
	
		<path fill-rule="evenodd" clip-rule="evenodd" fill="#9ED193" stroke="#000000" stroke-width="0.7483" stroke-linecap="round" stroke-linejoin="round" stroke-miterlimit="2.6131" d="
		M49.619,190.595l-16.598-1.373c-0.947-0.27-1.283-0.43-2.074-0.957l-11.012-11.492c-0.699-2.1-0.205-3.623,2.395-3.188l11.01,1.752
		c1.596,0.199,4.285,0.006,4.309-2.141c-0.199,0.023-0.406,0.033-0.613,0.033c-3.25,0-5.91-2.66-5.91-5.91s2.66-5.908,5.91-5.908
		s5.912,2.658,5.912,5.908c0,0.488-0.062,0.963-0.174,1.418l0.143,0.059c1.986,0.33,3.637-0.496,3.193-2.713l-4.467-11.016
		l-6.066,1.281c-0.707,0.141-0.996,0.277-1.596,0.637l-12.607,9.26c-2.326,0.93-4.914,0.314-6.703,1.273
		c-0.707,0.322-0.793,0.934-1.596,1.115l-0.16,1.039v43.17h36.705V190.595L49.619,190.595z"/>
	<linearGradient id="SVGID_3_" gradientUnits="userSpaceOnUse" x1="31.1245" y1="167.3208" x2="42.9468" y2="167.3208">
		<stop  offset="0" style="stop-color:#A7BBD6"/>
		<stop  offset="0.3516" style="stop-color:#CED8E8"/>
		<stop  offset="0.5129" style="stop-color:#CED8E8"/>
		<stop  offset="0.6494" style="stop-color:#BECCE1"/>
		<stop  offset="0.8114" style="stop-color:#B1C2DB"/>
		<stop  offset="0.8381" style="stop-color:#B1C2DB"/>
		<stop  offset="1" style="stop-color:#B1C2DB"/>
	</linearGradient>
	
		<path fill="url(#SVGID_3_)" stroke="#000000" stroke-width="0.7483" stroke-linecap="round" stroke-linejoin="round" stroke-miterlimit="2.6131" d="
		M37.035,161.412c3.25,0,5.912,2.658,5.912,5.908s-2.662,5.91-5.912,5.91s-5.91-2.66-5.91-5.91S33.785,161.412,37.035,161.412
		L37.035,161.412z M37.035,163.822c-1.928,0-3.504,1.576-3.504,3.498c0,1.928,1.576,3.502,3.504,3.502s3.502-1.574,3.502-3.502
		C40.537,165.398,38.962,163.822,37.035,163.822L37.035,163.822z"/>
</g>
</svg>
