<?xml version="1.0" encoding="utf-8"?>
<!-- Generator: Adobe Illustrator 21.0.2, SVG Export Plug-In . SVG Version: 6.00 Build 0)  -->
<svg version="1.1" id="Lager_1" xmlns="http://www.w3.org/2000/svg" xmlns:xlink="http://www.w3.org/1999/xlink" x="0px" y="0px"
	 width="278.333px" height="246.099px" viewBox="0 0 278.333 246.099" style="enable-background:new 0 0 278.333 246.099;"
	 xml:space="preserve">
<style type="text/css">
	.st0{fill:none;stroke:#000000;stroke-width:0.7483;stroke-miterlimit:1;}
	.st1{fill:#D8D9D9;}
	.st2{fill:none;stroke:#000000;stroke-width:0.7483;stroke-miterlimit:3.8637;}
	.st3{fill:url(#SVGID_1_);}
	.st4{font-family:'ArialMT';}
	.st5{font-size:12px;}
	.st6{fill:none;stroke:#000000;stroke-width:0.4677;stroke-linecap:round;stroke-miterlimit:1;}
	.st7{fill:none;stroke:#000000;stroke-width:0.7483;stroke-miterlimit:2.6131;}
	.st8{fill:none;stroke:#000000;stroke-width:0.4677;stroke-linecap:round;stroke-dasharray:30,1.7,0.86,1.7;}
	.st9{fill:none;stroke:#000000;stroke-width:0.5613;stroke-miterlimit:2.6131;}
	.st10{fill:none;stroke:#000000;stroke-width:0.4677;stroke-linecap:round;stroke-miterlimit:2.6131;}
	
		.st11{fill-rule:evenodd;clip-rule:evenodd;fill:#93AD9E;stroke:#000000;stroke-width:0.7483;stroke-linecap:round;stroke-linejoin:round;stroke-miterlimit:2.6131;}
	
		.st12{fill-rule:evenodd;clip-rule:evenodd;fill:#B5CF91;stroke:#000000;stroke-width:0.7483;stroke-linecap:round;stroke-linejoin:round;stroke-miterlimit:2.6131;}
	
		.st13{fill-rule:evenodd;clip-rule:evenodd;fill:url(#SVGID_2_);stroke:#000000;stroke-width:0.7483;stroke-linecap:round;stroke-linejoin:round;stroke-miterlimit:2.6131;}
	
		.st14{fill-rule:evenodd;clip-rule:evenodd;fill:url(#SVGID_3_);stroke:#000000;stroke-width:0.7483;stroke-linecap:round;stroke-linejoin:round;stroke-miterlimit:2.6131;}
</style>
<line class="st0" x1="213.032" y1="87.309" x2="213.032" y2="158.278"/>
<line class="st0" x1="154.155" y1="29.528" x2="154.155" y2="216.372"/>
<polygon class="st1" points="154.171,2.643 244.274,2.643 244.274,87.309 213.032,87.309 213.032,29.476 154.155,29.476 "/>
<polygon class="st1" points="154.155,216.319 213.032,216.319 213.032,158.278 244.274,158.278 244.274,243.151 154.171,243.151 "/>
<polyline class="st2" points="244.274,87.309 213.032,87.309 213.032,29.476 154.155,29.476 154.171,2.643 "/>
<polyline class="st2" points="154.171,243.151 154.155,216.319 213.032,216.319 213.032,158.278 244.274,158.278 "/>
<linearGradient id="SVGID_1_" gradientUnits="userSpaceOnUse" x1="163.1836" y1="89.9257" x2="163.1836" y2="155.5947" gradientTransform="matrix(-1 0 0 1 371.1563 0)">
	<stop  offset="0" style="stop-color:#D8D9D9"/>
	<stop  offset="0.3" style="stop-color:#FFFFFF"/>
	<stop  offset="0.441" style="stop-color:#EEEEEE"/>
	<stop  offset="0.5966" style="stop-color:#E2E2E2"/>
	<stop  offset="0.7708" style="stop-color:#DBDBDB"/>
	<stop  offset="1" style="stop-color:#D8D9D9"/>
</linearGradient>
<polyline class="st3" points="274.06,155.595 150.671,155.595 141.886,153.14 141.886,92.414 150.671,89.926 274.06,89.926 "/>
<polyline class="st2" points="274.06,155.595 150.671,155.595 141.886,153.14 141.886,92.414 150.671,89.926 274.06,89.926 "/>
<line class="st2" x1="150.671" y1="89.926" x2="150.671" y2="155.595"/>
<text transform="matrix(1 0 0 1 112.8047 126.8935)" class="st4 st5">d</text>
<text transform="matrix(0.75 0 0 0.75 119.4785 129.3735)" class="st4 st5">1</text>
<g>
	<line class="st6" x1="147.671" y1="89.926" x2="115.808" y2="89.926"/>
	<g>
		<line class="st6" x1="118.644" y1="96.197" x2="118.644" y2="115.274"/>
		<polygon points="119.804,98.324 118.644,89.926 117.483,98.324 		"/>
	</g>
</g>
<g>
	<line class="st6" x1="147.671" y1="155.595" x2="115.808" y2="155.595"/>
	<g>
		<line class="st6" x1="118.644" y1="129.62" x2="118.644" y2="149.454"/>
		<polygon points="117.483,147.341 118.644,155.595 119.804,147.341 		"/>
	</g>
</g>
<text transform="matrix(1 0 0 1 95.6006 126.8935)" class="st4 st5">D</text>
<g>
	<line class="st6" x1="152.155" y1="29.295" x2="97.097" y2="29.295"/>
	<g>
		<line class="st6" x1="99.933" y1="35.566" x2="99.933" y2="114.623"/>
		<polygon points="101.093,37.693 99.933,29.295 98.772,37.693 		"/>
	</g>
</g>
<g>
	<line class="st6" x1="152.155" y1="216.382" x2="97.097" y2="216.382"/>
	<g>
		<line class="st6" x1="99.933" y1="131.288" x2="99.933" y2="210.241"/>
		<polygon points="98.772,208.128 99.933,216.382 101.093,208.128 		"/>
	</g>
</g>
<g>
	<line class="st7" x1="49.773" y1="84.231" x2="49.773" y2="161.268"/>
	<line class="st8" x1="2.749" y1="122.839" x2="66.417" y2="122.839"/>
	<text transform="matrix(1 0 0 1 31.6167 10.2978)" class="st4 st5">b</text>
	<g>
		<line class="st6" x1="6.342" y1="29.267" x2="6.342" y2="3.163"/>
		<g>
			<line class="st6" x1="12.613" y1="5.997" x2="28.971" y2="5.997"/>
			<polygon points="14.74,7.157 6.342,5.997 14.74,4.837 			"/>
		</g>
	</g>
	<g>
		<line class="st6" x1="63.107" y1="29.267" x2="63.107" y2="3.163"/>
		<g>
			<line class="st6" x1="39.754" y1="5.997" x2="56.967" y2="5.997"/>
			<polygon points="54.853,4.837 63.107,5.997 54.853,7.157 			"/>
		</g>
	</g>
	<line class="st7" x1="41.759" y1="89.331" x2="41.759" y2="156.347"/>
	<line class="st7" x1="60.799" y1="39.466" x2="60.799" y2="207.267"/>
	<line class="st9" x1="56.135" y1="33.833" x2="56.135" y2="211.433"/>
	<line class="st7" x1="63.051" y1="39.466" x2="63.051" y2="122.839"/>
	<line class="st7" x1="5.905" y1="160.518" x2="5.905" y2="85.432"/>
	<line class="st10" x1="21.999" y1="164.186" x2="21.999" y2="81.521"/>
	<line class="st7" x1="63.051" y1="206.212" x2="63.051" y2="122.839"/>
	<g>
		<path class="st11" d="M63.034,32.955v6.364h-2.238v-5.255c0-1.289-0.803-2.107-2.232-2.085c-1.432,0.022-2.344,0.662-2.391,1.915
			H12.925c-1.438,0-2.393,1.476-2.393,2.871v35.267H6.543V35.275c0-3.273,2.776-6.009,6.151-6.009h45.868
			C61.329,29.267,63.034,30.376,63.034,32.955L63.034,32.955z"/>
		<path class="st12" d="M48.989,82.88c0,0,0.43,0.316,0.639,0.641c0.211,0.32,0.119,1.051,0,1.277
			c-0.119,0.223-0.182,0.324-0.48,0.48c-0.299,0.156-1.541,0.273-2.072,0.477c-0.531,0.199-3.162,1.699-3.672,2.074
			c-0.51,0.379-1.596,1.437-1.596,1.437l0,0c0,0-15.797-8.777-16.116-9.098c-0.317-0.16-1.596-0.477-2.393-0.477
			c-0.637,0-3.031,0-3.51,0s-1.276,0.316-1.755,0.637c-0.319,0.32-8.457,5.586-8.457,5.586l0,0H5.905l0,0c0,0,0-1.277,0-2.234
			c2.873-1.594,4.628-2.555,4.628-5.266c0-2.391-2.074-3.191-3.352-3.191c-0.479,0-0.798-0.641-0.798-1.117s0.16-2.074,0.16-2.074
			h3.989V60.321c0.849,0,2.088,0.773,2.552,1.496c0.464,0.723,0,0,0,0s6.703,10.371,7.182,11.012
			c0.319,0.637,1.595,1.277,2.394,1.434c0.798,0,11.329,0.32,11.329,0.32l0,0l0.513-0.16c0.677,2.336,2.836,4.047,5.381,4.047
			c3.088,0,5.603-2.52,5.603-5.605c0-0.633-0.104-1.238-0.299-1.809c0,0,2.019-1.578,4.283-1.578c2.26,0,2.551,3.086,2.551,3.988
			C52.022,77.282,48.989,82.88,48.989,82.88L48.989,82.88L48.989,82.88z"/>
		<linearGradient id="SVGID_2_" gradientUnits="userSpaceOnUse" x1="34.2817" y1="72.8662" x2="45.4868" y2="72.8662">
			<stop  offset="0" style="stop-color:#BAC5DC"/>
			<stop  offset="0.3516" style="stop-color:#DBE1ED"/>
			<stop  offset="0.5129" style="stop-color:#DBE1ED"/>
			<stop  offset="0.6494" style="stop-color:#CED5E6"/>
			<stop  offset="0.8114" style="stop-color:#C2CBE0"/>
			<stop  offset="0.8381" style="stop-color:#C2CBE0"/>
			<stop  offset="1" style="stop-color:#C2CBE0"/>
		</linearGradient>
		<path class="st13" d="M39.883,76.442c1.973,0,3.578-1.605,3.578-3.578c0-1.969-1.605-3.578-3.578-3.578
			c-1.971,0-3.575,1.609-3.575,3.578C36.308,74.837,37.913,76.442,39.883,76.442L39.883,76.442z M39.883,78.47
			c3.088,0,5.603-2.52,5.603-5.605c0-3.086-2.516-5.602-5.603-5.602c-3.084,0-5.602,2.516-5.602,5.602
			C34.282,75.95,36.799,78.47,39.883,78.47L39.883,78.47z"/>
	</g>
	<g>
		<path class="st11" d="M63.034,212.658v-6.364h-2.238v5.255c0,1.289-0.803,2.107-2.232,2.085c-1.432-0.022-2.344-0.662-2.391-1.915
			H12.925c-1.438,0-2.393-1.476-2.393-2.871v-35.267H6.543v36.757c0,3.273,2.776,6.009,6.151,6.009h45.868
			C61.329,216.347,63.034,215.237,63.034,212.658L63.034,212.658z"/>
		<path class="st12" d="M48.989,162.733c0,0,0.43-0.316,0.639-0.641c0.211-0.32,0.119-1.051,0-1.277
			c-0.119-0.223-0.182-0.324-0.48-0.48c-0.299-0.156-1.541-0.273-2.072-0.477c-0.531-0.199-3.162-1.699-3.672-2.074
			c-0.51-0.379-1.596-1.438-1.596-1.438l0,0c0,0-15.797,8.777-16.116,9.098c-0.317,0.16-1.596,0.477-2.393,0.477
			c-0.637,0-3.031,0-3.51,0s-1.276-0.316-1.755-0.637c-0.319-0.32-8.457-5.586-8.457-5.586l0,0H5.905l0,0c0,0,0,1.277,0,2.234
			c2.873,1.594,4.628,2.555,4.628,5.266c0,2.391-2.074,3.191-3.352,3.191c-0.479,0-0.798,0.641-0.798,1.117
			c0,0.477,0.16,2.074,0.16,2.074h3.989v11.711c0.849,0,2.088-0.773,2.552-1.496c0.464-0.723,0,0,0,0s6.703-10.371,7.182-11.012
			c0.319-0.637,1.595-1.277,2.394-1.434c0.798,0,11.329-0.32,11.329-0.32l0,0l0.513,0.16c0.677-2.336,2.836-4.047,5.381-4.047
			c3.088,0,5.603,2.52,5.603,5.605c0,0.633-0.104,1.238-0.299,1.809c0,0,2.019,1.578,4.283,1.578c2.26,0,2.551-3.086,2.551-3.988
			C52.022,168.331,48.989,162.733,48.989,162.733L48.989,162.733L48.989,162.733z"/>
		
			<linearGradient id="SVGID_3_" gradientUnits="userSpaceOnUse" x1="34.2817" y1="-54.214" x2="45.4868" y2="-54.214" gradientTransform="matrix(1 0 0 -1 0 118.5331)">
			<stop  offset="0" style="stop-color:#BAC5DC"/>
			<stop  offset="0.3516" style="stop-color:#DBE1ED"/>
			<stop  offset="0.5129" style="stop-color:#DBE1ED"/>
			<stop  offset="0.6494" style="stop-color:#CED5E6"/>
			<stop  offset="0.8114" style="stop-color:#C2CBE0"/>
			<stop  offset="0.8381" style="stop-color:#C2CBE0"/>
			<stop  offset="1" style="stop-color:#C2CBE0"/>
		</linearGradient>
		<path class="st14" d="M39.883,169.171c-1.971,0-3.575,1.605-3.575,3.578c0,1.969,1.604,3.578,3.575,3.578
			c1.973,0,3.578-1.609,3.578-3.578C43.461,170.776,41.856,169.171,39.883,169.171L39.883,169.171z M39.883,167.143
			c-3.084,0-5.602,2.52-5.602,5.605c0,3.086,2.518,5.602,5.602,5.602c3.088,0,5.603-2.516,5.603-5.602
			C45.487,169.663,42.971,167.143,39.883,167.143L39.883,167.143z"/>
	</g>
	<line class="st7" x1="6.401" y1="83.411" x2="6.401" y2="74.106"/>
	<line class="st7" x1="6.401" y1="171.848" x2="6.401" y2="162.286"/>
</g>
</svg>
